<svg width="27" height="15" viewBox="0 0 27 15" fill="none" xmlns="http://www.w3.org/2000/svg">
<path d="M12.1317 7.45135C8.88878 7.4251 5.64584 7.40405 2.4029 7.36857C1.75653 7.36135 1.10923 7.31061 0.465463 7.24733C0.358959 7.23576 0.258423 7.1923 0.177012 7.12266C0.095601 7.05303 0.0371005 6.96045 0.00915961 6.85703C-0.0437087 6.69144 0.14009 6.45655 0.359606 6.42202C0.572498 6.38855 0.784314 6.33662 0.998271 6.32373C2.36469 6.24093 3.73099 6.12374 5.0987 6.09902C7.90865 6.04852 10.7194 6.03574 13.53 6.03255C16.1964 6.02947 18.863 6.06282 21.5295 6.06897C21.9577 6.07004 22.386 6.0161 22.8135 5.9779C22.8418 5.97091 22.868 5.95689 22.8895 5.93716C22.9111 5.91742 22.9273 5.8926 22.9367 5.86495C22.9444 5.79896 22.9249 5.68754 22.881 5.66388C22.0616 5.21846 21.2523 4.74986 20.4097 4.35235C18.4495 3.42757 16.6107 2.29356 14.7732 1.15577C14.4713 0.96878 14.1548 0.778836 14.033 0.407812C14.0108 0.340278 13.9763 0.224607 14.0045 0.202017C14.1053 0.108013 14.2278 0.0404278 14.3611 0.00531792C14.503 -0.0114358 14.6468 0.0115779 14.7764 0.071789C15.2356 0.279714 15.6914 0.496753 16.1381 0.729989C19.3309 2.39694 22.5226 4.06573 25.7134 5.73639C26.9186 6.36324 27.4913 6.97105 26.0446 8.34929C25.6278 8.74657 25.2062 9.14325 24.7529 9.49654C22.651 11.1366 20.5413 12.7666 18.424 14.3867C18.1329 14.5956 17.8259 14.7815 17.5058 14.9426C17.2971 15.0559 17.0881 14.9887 16.9078 14.8528C16.7095 14.7032 16.5864 14.2683 16.6547 14.077C16.8067 13.6524 17.1095 13.3409 17.4346 13.0588C18.6866 11.9728 19.9452 10.8946 21.2105 9.82427C22.0328 9.1248 22.8636 8.43562 23.6846 7.73474C23.7251 7.7002 23.7271 7.59281 23.7107 7.52823C23.6999 7.50029 23.6825 7.47538 23.66 7.45564C23.6374 7.43591 23.6104 7.42193 23.5813 7.41493C23.1522 7.38678 22.7224 7.35094 22.293 7.35319C18.9058 7.37109 15.5186 7.39339 12.1314 7.42012L12.1317 7.45135Z" fill="black"/>
</svg>
