<svg width="17" height="20" viewBox="0 0 17 20" fill="none" xmlns="http://www.w3.org/2000/svg">
<g clip-path="url(#clip0_23_39)">
<path d="M16.7612 10.2496C16.7612 12.0519 16.7666 13.8543 16.7574 15.6567C16.7601 16.1186 16.7319 16.5802 16.6728 17.0383C16.5505 17.9088 16.0957 18.5861 15.3625 19.0749C14.8266 19.4421 14.206 19.6682 13.5586 19.7318C11.1098 19.9757 8.64342 19.9908 6.19182 19.7769C5.22136 19.6925 4.24074 19.6895 3.29624 19.4212C2.80412 19.292 2.32354 19.1227 1.8594 18.9149C0.967449 18.493 0.428512 17.7752 0.21902 16.8059C0.0915904 16.2662 0.0237919 15.7142 0.0168304 15.1598C0.0320191 12.0634 0.0426055 8.96679 0.0485857 5.87019C0.0587492 4.94576 0.130223 4.02306 0.262529 3.10802C0.315127 2.69587 0.421885 2.29234 0.580062 1.90789C1.01223 0.889388 1.77811 0.273518 2.91345 0.207589C4.16398 0.134862 5.41561 0.0695172 6.66772 0.041612C7.82727 0.015446 8.98858 0.0243621 10.1483 0.0521882C11.0287 0.073374 11.908 0.147048 12.7875 0.200487C13.0201 0.215939 13.2431 0.298873 13.4289 0.439107C14.5499 1.26367 15.5742 2.21125 16.4824 3.26388C16.742 3.56128 16.8139 3.89835 16.8079 4.288C16.7756 6.27487 16.7631 8.26212 16.7437 10.2492L16.7612 10.2496ZM9.05828 18.9723C10.2197 18.9302 11.5164 18.8854 12.8131 18.8343C13.091 18.8234 13.3688 18.8005 13.6437 18.7621C14.0597 18.7031 14.4478 18.5193 14.7564 18.2352C15.2226 17.8184 15.5344 17.3128 15.5899 16.6877C15.643 16.0911 15.6591 15.4907 15.6762 14.8915C15.708 13.7848 15.7306 12.6781 15.7528 11.5714C15.763 11.0641 15.8094 10.5521 15.7589 10.0503C15.6333 8.80568 15.6811 7.56014 15.6769 6.31516C15.6753 5.85389 15.6689 5.39255 15.6548 4.93176C15.6479 4.70433 15.4438 4.52744 15.1864 4.51875C14.5844 4.49827 13.9817 4.49334 13.3801 4.46401C13.1033 4.44719 12.8281 4.41045 12.5566 4.354C12.3137 4.30657 12.0595 4.00693 12.0321 3.76266C12.0091 3.57982 11.9959 3.39593 11.9924 3.2117C11.989 2.65834 11.996 2.10498 11.9954 1.55162C11.9879 1.46061 11.9508 1.37449 11.8897 1.30643C11.8285 1.23838 11.7468 1.19216 11.6567 1.17473C11.5184 1.16224 11.38 1.14638 11.2414 1.144C9.52672 1.11452 7.81204 1.08082 6.09736 1.06272C5.40267 1.05544 4.70751 1.08373 4.01259 1.09638C3.50138 1.10892 2.99652 1.2122 2.52177 1.40147C1.85916 1.65941 1.48296 2.15325 1.42112 2.86345C1.40714 3.09371 1.40941 3.32468 1.42795 3.55461C1.51202 5.07691 1.48146 6.59906 1.45129 8.1222C1.40469 10.4754 1.37834 12.8292 1.35928 15.1828C1.35072 15.7364 1.3823 16.2899 1.45375 16.839C1.48944 17.1395 1.60177 17.4259 1.78005 17.6709C1.95833 17.916 2.19662 18.1114 2.47224 18.2387C2.76365 18.3786 3.07026 18.4847 3.38602 18.5549C4.06208 18.7176 4.75257 18.8137 5.44753 18.8417C6.60613 18.8745 7.76385 18.9243 9.05828 18.9723ZM13.8719 3.54496C14.0942 3.53334 14.2768 3.53588 14.4535 3.50837C14.5189 3.49817 14.5814 3.42389 14.6281 3.3654C14.635 3.34479 14.6369 3.32286 14.6335 3.3014C14.6301 3.27994 14.6217 3.25953 14.6089 3.24196C14.2813 2.81339 13.8804 2.44563 13.4247 2.15554C13.389 2.15011 13.3526 2.15233 13.3179 2.16195C13.2831 2.17157 13.2508 2.18838 13.2231 2.21136C13.2065 2.56709 13.198 2.92405 13.2116 3.27978C13.222 3.32271 13.2427 3.36244 13.2719 3.39566C13.3012 3.42888 13.338 3.45461 13.3793 3.47054C13.5415 3.5071 13.7062 3.53189 13.8719 3.54481V3.54496Z" fill="black"/>
<path d="M8.32001 6.87452C9.6646 6.89302 11.0092 6.90911 12.3537 6.93188C12.6782 6.93394 13.0024 6.95304 13.3248 6.98916C13.5056 7.0242 13.6818 7.07951 13.85 7.15405C13.9892 7.20528 14.1496 7.45691 14.1448 7.59501C14.1402 7.73011 13.9543 7.97722 13.8312 8.02552C13.392 8.19737 12.9317 8.23144 12.4672 8.23824C11.5399 8.25176 10.6121 8.28638 9.68532 8.26986C8.48068 8.24812 7.27677 8.1867 6.07261 8.1388C5.33141 8.10931 4.59028 8.07729 3.84987 8.03737C3.61554 8.03524 3.38924 7.95216 3.20965 7.80221C3.15428 7.76057 3.10943 7.70666 3.07866 7.64473C3.04788 7.5828 3.03204 7.5145 3.03238 7.4454C3.04032 7.28651 3.18521 7.04565 3.32611 7.02004C3.55025 6.96925 3.77841 6.93806 4.00801 6.92678C5.44548 6.9184 6.88303 6.92254 8.32048 6.92254L8.32001 6.87452Z" fill="black"/>
<path d="M8.75375 10.3479C7.47523 10.3146 6.22367 10.2893 4.97275 10.2456C4.55658 10.2292 4.14177 10.1878 3.73064 10.1214C3.55228 10.0798 3.38365 10.0043 3.23395 9.8992C3.19951 9.87146 3.1715 9.83667 3.1518 9.79715C3.13211 9.75762 3.12119 9.71438 3.11981 9.67027C3.11843 9.62624 3.12661 9.58237 3.14381 9.54165C3.16099 9.50102 3.18678 9.4645 3.21942 9.4347C3.3278 9.35074 3.45473 9.29391 3.58966 9.26869C3.91024 9.22221 4.23349 9.19596 4.55742 9.19035C6.45818 9.1724 8.35945 9.13327 10.2596 9.16418C11.3695 9.18221 12.4777 9.31572 13.5862 9.40284C13.677 9.42071 13.7651 9.45019 13.8482 9.49059C13.9715 9.53509 14.1397 9.82758 14.083 9.94482C14.0263 10.062 13.9459 10.1978 13.8383 10.2527C13.4573 10.4469 13.0331 10.4533 12.6158 10.4518C11.3187 10.4466 10.0187 10.5447 8.75375 10.3479Z" fill="black"/>
<path d="M8.50504 11.5782C9.85098 11.5964 11.197 11.6124 12.5429 11.6348C12.8211 11.6365 13.0989 11.6556 13.3748 11.6918C13.5062 11.7104 13.6306 11.7928 13.7529 11.8562C13.8845 11.9244 14.0176 12.2113 13.953 12.3325C13.8909 12.4487 13.8001 12.581 13.6879 12.6321C13.5186 12.7042 13.3366 12.7424 13.1525 12.7444C11.9925 12.7734 10.8322 12.8083 9.67205 12.8053C8.51194 12.8023 7.35056 12.7806 6.19204 12.7228C5.3593 12.6813 4.52959 12.572 3.70011 12.4792C3.56272 12.462 3.43343 12.405 3.32836 12.3152C3.23757 12.2174 3.17233 12.0989 3.13841 11.97C3.10967 11.8841 3.27907 11.6637 3.36425 11.6529C3.63683 11.6071 3.91189 11.5775 4.188 11.5641C5.62691 11.5553 7.06589 11.5601 8.50488 11.5601L8.50504 11.5782Z" fill="black"/>
<path d="M7.02447 15.0718C6.05814 15.0368 5.09164 15.0052 4.12554 14.965C3.8008 14.9643 3.48352 14.8679 3.21384 14.6877C3.13864 14.6356 3.07821 14.5651 3.03841 14.4829C2.9986 14.4008 2.98078 14.3097 2.98664 14.2186C2.98982 14.0579 3.16001 13.8613 3.30671 13.8038C3.7045 13.6478 4.11865 13.6571 4.53334 13.6749C5.72941 13.726 6.92643 13.7637 8.12099 13.8395C8.85473 13.8861 9.58489 13.9909 10.316 14.0748C10.4057 14.094 10.4935 14.1209 10.5785 14.1553C10.6605 14.1798 10.828 14.3978 10.7929 14.4801C10.7425 14.5987 10.6817 14.7454 10.5804 14.803C10.4208 14.8908 10.2437 14.9424 10.0617 14.954C9.37262 14.9983 8.68231 15.0251 7.99215 15.0488C7.67017 15.0601 7.3474 15.0508 7.02503 15.0508L7.02447 15.0718Z" fill="black"/>
<path d="M5.16781 5.54195C4.71795 5.51373 4.20728 5.49715 3.70129 5.44252C3.47265 5.40863 3.25013 5.34207 3.04058 5.24489C2.97693 5.2171 2.92245 5.17199 2.88339 5.11474C2.84434 5.05749 2.82231 4.99044 2.81981 4.92127C2.80862 4.76689 2.96905 4.52791 3.10798 4.49336C3.15179 4.47821 3.19658 4.46606 3.24205 4.45701C4.35048 4.3404 5.46003 4.28901 6.57132 4.41478C6.66311 4.42686 6.75221 4.4542 6.83494 4.49561C6.91858 4.53372 6.99168 4.59146 7.04797 4.6639C7.10426 4.73633 7.14205 4.82129 7.15812 4.91147C7.18519 5.04839 7.01904 5.30368 6.8752 5.35158C6.74782 5.40495 6.61461 5.44326 6.47828 5.46584C6.06231 5.50046 5.64515 5.51579 5.16781 5.54195Z" fill="black"/>
</g>
<defs>
<clipPath id="clip0_23_39">
<rect width="16.8293" height="20" fill="white"/>
</clipPath>
</defs>
</svg>
