<svg width="20" height="20" viewBox="0 0 20 20" fill="none" xmlns="http://www.w3.org/2000/svg">
<g clip-path="url(#clip0_23_60)">
<path d="M16.2828 2.0462C16.7186 2.0462 17.0762 2.013 17.4251 2.05325C18.1173 2.13391 18.6573 2.46413 18.9438 3.13019C19.339 4.00509 19.4191 4.98979 19.1704 5.91703C18.9939 6.57836 18.5716 7.03373 17.9775 7.33946C17.2671 7.69984 16.498 7.93053 15.7065 8.02069C14.4823 8.16824 13.251 8.25837 12.0218 8.36648C11.5714 8.40614 11.1193 8.42805 10.647 8.45934C10.3713 9.4395 10.4764 10.4199 10.4151 11.4465C10.5908 11.4465 10.7407 11.4373 10.8892 11.4486C11.0867 11.4592 11.2832 11.4839 11.4771 11.5228C11.6484 11.5613 11.7198 11.6938 11.7261 11.8727C11.7593 12.7781 11.8032 13.6832 11.8339 14.5887C11.8632 15.4539 11.873 16.3198 11.9057 17.1849C11.9336 17.9202 11.9788 18.6549 12.0231 19.3895C12.0359 19.5029 12.0108 19.6173 11.9515 19.7149C11.8922 19.8124 11.8022 19.8873 11.6955 19.9281C11.5884 19.9658 11.4754 19.9843 11.3617 19.9828C10.4957 19.973 9.62971 19.9586 8.76373 19.9393C8.63602 19.9339 8.50938 19.9133 8.38647 19.878C8.031 19.7831 7.86452 19.5798 7.84768 19.2084C7.76012 17.2799 7.70494 15.3513 7.84485 13.4227C7.87465 13.0126 7.88585 12.6001 7.9383 12.193C7.98917 11.7988 8.25299 11.5668 8.64647 11.5266C8.88398 11.5022 9.12324 11.4944 9.40432 11.4768C9.43245 11.111 9.45776 10.7611 9.48647 10.4115C9.53967 9.76158 9.56473 9.10747 9.65685 8.46307C9.77012 7.67116 10.1127 7.38835 10.9007 7.3369C12.1614 7.25449 13.4232 7.18584 14.6824 7.08567C15.5469 7.0272 16.3999 6.85595 17.2198 6.57624C18.1433 6.24985 18.4578 5.85499 18.4652 4.87997C18.4684 4.46221 18.3632 4.03927 18.2732 3.62616C18.1752 3.17662 17.8524 2.9291 17.4171 2.83831C17.0983 2.77192 16.7726 2.7387 16.3964 2.68202C16.4159 2.8821 16.4368 3.06027 16.4498 3.23902C16.4753 3.59255 16.5079 3.94617 16.5167 4.30028C16.5333 4.96575 16.1334 5.47871 15.4007 5.50684C13.2456 5.58983 11.0936 5.74836 8.93842 5.83765C7.10917 5.91351 5.27779 5.95274 3.447 5.96975C2.76916 5.97606 2.08975 5.87847 1.41216 5.81565C1.24304 5.79553 1.07712 5.75424 0.918297 5.69275C0.448252 5.52346 0.151324 5.18328 0.114228 4.68859C0.0312406 3.58212 0.0363019 2.47457 0.31763 1.3905C0.485431 0.7437 0.874646 0.308915 1.58112 0.249994C2.31597 0.188666 3.05107 0.104435 3.78725 0.0899954C6.11489 0.0442693 8.44282 0.00161263 10.771 0.00791968C12.0183 0.0113222 13.2661 0.105265 14.512 0.185099C14.8799 0.21531 15.2429 0.2885 15.5937 0.403185C16.2543 0.607666 16.4586 1.0007 16.3117 1.6729C16.2936 1.79653 16.284 1.92127 16.2828 2.0462ZM8.01041 0.712908L8.0095 0.760946C6.47689 0.794722 4.94385 0.818039 3.41198 0.867414C2.77555 0.887912 2.14053 0.959381 1.50576 1.01731C1.2568 1.03996 1.07804 1.16859 1.03505 1.43224C0.931899 2.06685 1.00626 2.67956 1.33506 3.23599C1.55523 3.60843 1.7319 3.607 2.028 3.29405C2.23281 3.07779 2.43158 2.85424 2.65265 2.65507C2.95141 2.38661 3.2905 2.18419 3.70261 2.13547C4.3505 2.05888 4.82701 2.34352 5.19714 2.84601C5.40718 3.13132 5.59058 3.43795 5.81689 3.70907C6.23714 4.21281 6.6275 4.1904 7.03373 3.67945C7.25422 3.40202 7.46651 3.10941 7.72959 2.87688C7.99968 2.652 8.2937 2.45754 8.60631 2.29698C8.72722 2.23355 8.86307 2.20441 8.99934 2.21278C9.13552 2.22115 9.26689 2.26668 9.379 2.34444C9.57618 2.48035 9.75726 2.63805 9.919 2.81457C10.1475 3.04693 10.3476 3.30727 10.5817 3.53325C10.8472 3.78985 10.9159 3.76993 11.172 3.50719C11.3705 3.2862 11.5884 3.08342 11.823 2.90136C12.2764 2.57987 12.7623 2.53624 13.2564 2.83823C13.4116 2.93673 13.5746 3.02257 13.7436 3.09497C14.3196 3.33016 14.7736 3.20119 15.0937 2.67173C15.2739 2.35117 15.4286 2.01695 15.5564 1.67214C15.6725 1.38642 15.6276 1.30701 15.3427 1.19406C15.2511 1.15587 15.1551 1.12902 15.0568 1.11407C14.4248 1.03009 13.794 0.908427 13.1592 0.879713C11.4439 0.803282 9.72672 0.766103 8.01041 0.712908ZM15.8156 2.94902L15.716 2.92409C15.6438 3.00708 15.5717 3.09007 15.4995 3.17306C15.3417 3.36611 15.1368 3.51544 14.9048 3.60676C14.6727 3.69807 14.4211 3.72834 14.1739 3.69464C13.781 3.65497 13.4452 3.48716 13.114 3.29081C12.7038 3.04757 12.4335 3.06595 12.071 3.37599C11.8779 3.54113 11.7124 3.73847 11.5359 3.92278C11.2009 4.27274 10.8918 4.31384 10.4782 4.05168C10.3697 3.98478 10.2699 3.90466 10.1811 3.81317C9.96739 3.58637 9.76058 3.35273 9.55867 3.11547C9.14705 2.6319 8.92183 2.60146 8.41212 2.994C8.2565 3.11683 8.11291 3.25423 7.98336 3.40435C7.75855 3.65954 7.54983 3.92875 7.33083 4.18917C7.02793 4.54925 6.65788 4.67234 6.19091 4.5496C5.80416 4.44694 5.46813 4.20672 5.24585 3.874C5.08137 3.64321 4.93307 3.40097 4.76386 3.17366C4.29664 2.54661 3.78635 2.47538 3.169 2.97073C2.91004 3.19101 2.66495 3.42709 2.43514 3.67763C1.94053 4.18692 1.49738 4.17605 1.03215 3.63265C0.94916 3.53564 0.868837 3.43646 0.744683 3.287C0.744683 3.62517 0.744683 3.88037 0.744683 4.13547C0.744683 4.19224 0.74377 4.24915 0.747505 4.30566C0.785098 4.8777 0.90336 5.04512 1.4651 5.12205C2.06806 5.2095 2.67593 5.25879 3.2851 5.26966C4.29174 5.27929 5.29913 5.24551 6.30585 5.21605C7.369 5.18493 8.43245 5.15281 9.49427 5.09364C11.2354 4.99663 12.9756 4.88071 14.7157 4.76469C15.0934 4.7398 15.469 4.68013 15.8154 4.64021L15.8156 2.94902ZM10.9881 19.0047C11.1339 17.9952 11.1379 12.9108 11.0001 12.2984L8.6195 12.2103C8.66266 14.4578 8.70515 16.6742 8.74805 18.9095L10.9881 19.0047Z" fill="black"/>
</g>
<defs>
<clipPath id="clip0_23_60">
<rect width="19.3361" height="20" fill="white"/>
</clipPath>
</defs>
</svg>
