<svg width="20" height="20" viewBox="0 0 20 20" fill="none" xmlns="http://www.w3.org/2000/svg">
<g clip-path="url(#clip0_23_47)">
<path d="M6.61595 6.83082C6.96972 7.15807 7.40283 7.30398 8.02059 7.30398C8.02354 7.30427 8.02652 7.30427 8.02948 7.30398C8.04848 7.30223 8.0718 7.30057 8.09819 7.29873C8.16823 7.29382 8.26416 7.2869 8.35836 7.2729C8.62948 7.23674 8.89056 7.14618 9.12608 7.0066C9.36168 6.86702 9.56683 6.68126 9.7294 6.4604C9.88442 6.24152 9.99405 5.99357 10.0516 5.73127C10.1092 5.46897 10.1136 5.19772 10.0647 4.93367C9.96135 4.33025 9.67463 3.94466 9.21372 3.78791C8.89936 3.68182 8.56633 3.64279 8.23612 3.67332C7.90586 3.70387 7.58558 3.80329 7.29577 3.96524C7.0172 4.11762 6.77393 4.32753 6.58197 4.58114C6.39002 4.83476 6.25373 5.12633 6.18209 5.43665C6.05595 5.97865 6.20192 6.4479 6.61595 6.83082ZM8.32069 4.71607C8.33729 4.71607 8.35438 4.71607 8.3709 4.71607C8.64982 4.71607 8.87015 4.75041 8.9767 5.03099C9.03065 5.18363 9.03803 5.34897 8.9977 5.50582C8.95745 5.66267 8.87139 5.80386 8.75065 5.91124C8.44849 6.18674 7.80259 6.26032 7.4469 6.0599C7.21927 5.93173 7.14989 5.77224 7.2074 5.50949C7.32483 4.97299 7.67852 4.72107 8.32069 4.71607Z" fill="black"/>
<path d="M4.24369 19.7598C4.44875 19.7515 4.66128 19.7432 4.86751 19.7432C6.12792 19.7495 7.2798 19.7621 8.38888 19.7817C10.1648 19.813 11.978 19.8514 13.7773 19.8958C13.9243 19.9038 14.0704 19.9243 14.2139 19.9571C14.2843 19.971 14.3549 19.9848 14.4252 19.9962C14.4297 19.9969 14.4342 19.9972 14.4387 19.9972H15.2877C15.292 19.9972 15.2961 19.9969 15.3003 19.9963C15.4705 19.9713 15.6412 19.9485 15.812 19.9259C16.1812 19.8772 16.5632 19.8267 16.9344 19.7479C18.6391 19.3863 20.0064 17.6342 19.9822 15.842C19.9661 14.6436 19.9693 13.4246 19.9724 12.2457C19.9745 11.3996 19.9767 10.5248 19.9719 9.66433C19.9673 8.87766 19.9395 8.07849 19.9126 7.30599L19.8954 6.80973C19.8893 6.62373 19.8838 6.43762 19.8788 6.2514C19.8622 5.63899 19.8448 5.00572 19.7847 4.38564C19.7212 3.77474 19.6073 3.17018 19.4444 2.57814C18.9914 0.89481 17.3863 0.1039 15.9973 0.067317C15.6003 0.0569004 15.1983 0.085052 14.8094 0.112219C14.5169 0.132719 14.2145 0.153885 13.9183 0.158219C13.112 0.170052 12.2918 0.174886 11.499 0.179886C10.4554 0.186219 9.37635 0.192898 8.31511 0.214981L8.15539 0.218399C6.63398 0.250066 5.06062 0.282724 3.51879 0.402807C1.85647 0.532224 0.754479 1.33123 0.243275 2.77781C0.157494 2.99781 0.10723 3.23015 0.0943906 3.46606L0.0860935 4.16239C0.0607823 6.19664 0.0345585 8.30024 0.0406996 10.3694C0.0433552 11.2986 0.0745563 12.2426 0.104764 13.1555C0.121362 13.6672 0.139205 14.1963 0.151404 14.7165C0.164848 15.2832 0.169581 15.7597 0.149084 16.2422C0.0743951 17.9937 1.59622 19.6745 3.34128 19.7687C3.64261 19.7848 3.94825 19.7722 4.24369 19.7598ZM1.11921 4.95274C1.10891 4.21296 1.28335 3.48239 1.62659 2.82774C1.93995 2.24607 2.40145 1.8833 2.96136 1.7788C3.84759 1.61339 4.71531 1.46289 5.58917 1.43923C7.81 1.37889 10.0688 1.34355 12.253 1.30939C13.3544 1.2921 14.4556 1.27385 15.5569 1.25464C16.1461 1.24364 16.7298 1.41748 17.3969 1.80114C18.1249 2.21964 18.357 2.9744 18.4881 3.65757C18.7632 5.09224 18.8847 6.29498 18.8707 7.44248C18.8651 7.89493 18.861 8.34849 18.8583 8.80333C18.827 8.77441 18.7967 8.74441 18.764 8.71716C18.3332 8.35791 17.8901 7.99931 17.4615 7.65256C16.945 7.23456 16.4109 6.80255 15.8954 6.36647C15.2227 5.7978 14.8301 5.81231 14.2149 6.42881C12.7515 7.89456 11.2548 9.38808 9.80722 10.8324L8.17067 12.4657L8.1417 12.4418C8.08834 12.3977 8.04502 12.362 8.00136 12.3268C7.77265 12.1417 7.54429 11.9562 7.3163 11.7704C6.76029 11.3176 6.18452 10.8494 5.61041 10.3987C5.19381 10.0717 4.89572 10.0762 4.51091 10.4144C3.38277 11.4061 2.24252 12.4172 1.13438 13.4004C1.1231 10.7909 1.11481 7.90124 1.11921 4.95274ZM1.24858 14.4481C1.46435 14.2661 1.67967 14.0834 1.89456 13.9002C2.3007 13.555 2.72062 13.198 3.13813 12.8529C3.58518 12.4832 4.04734 12.1118 4.49431 11.7529C4.67838 11.6049 4.86322 11.4561 5.04883 11.3065C5.29697 11.5075 5.54317 11.7068 5.78742 11.9042C6.42493 12.4197 7.02718 12.9063 7.63731 13.4084C8.12088 13.8065 8.41453 13.7917 8.84614 13.3489C8.99079 13.2004 9.13311 13.0495 9.27536 12.8989C9.46158 12.7013 9.65411 12.4971 9.84872 12.3025C11.3188 10.8331 12.8165 9.34199 14.2649 7.89998L14.8964 7.27122C14.9574 7.21039 15.0231 7.15189 15.0758 7.10455L15.0807 7.10022C15.3505 7.31222 15.6183 7.52334 15.8842 7.73356C16.6794 8.36158 17.4305 8.95483 18.2099 9.54574C18.4073 9.68308 18.6241 9.79008 18.8529 9.86325C18.848 11.4291 18.8536 12.9946 18.8595 14.5257C18.8613 14.9913 18.863 15.4569 18.8645 15.9224C18.8681 17.0507 17.9632 18.2858 16.8886 18.6196C16.0843 18.8637 15.2446 18.9682 14.4053 18.9284C13.2627 18.8813 12.101 18.8261 10.9779 18.7727C10.5104 18.7505 10.0427 18.7282 9.57502 18.7061H9.57112L8.30838 18.7055C7.6283 18.7052 6.94828 18.7049 6.26834 18.7048C5.53041 18.7048 4.79249 18.7053 4.05457 18.7065H4.04576C3.20858 18.7065 2.58079 18.4952 2.07067 18.0422C1.44502 17.4864 1.15107 16.725 1.14551 15.6458C1.1436 15.2842 1.14178 14.9141 1.13995 14.5375C1.17655 14.5083 1.21315 14.4779 1.24858 14.4481Z" fill="black"/>
</g>
<defs>
<clipPath id="clip0_23_47">
<rect width="20" height="20" fill="white"/>
</clipPath>
</defs>
</svg>
