<svg width="39" height="54" viewBox="0 0 39 54" fill="none" xmlns="http://www.w3.org/2000/svg">
<g clip-path="url(#clip0_26_232)">
<path d="M33.6239 31.7157C36.1963 28.5455 37.8494 24.7361 38.4051 20.6986C39.4978 12.6709 36.2031 6.31669 29.1282 2.80669C26.9439 1.72295 24.5651 1.14031 22.3162 0.636751C16.5559 -0.653103 11.2816 0.346407 6.6389 3.60639C2.86086 6.25963 0.785074 9.50045 0.293082 13.5144C-0.0778391 16.5722 0.123136 19.6719 0.885852 22.6569C2.42512 28.7503 5.1792 33.5394 9.30523 37.2973C9.408 37.391 9.51213 37.4843 9.61644 37.5774C10.0758 37.9635 10.499 38.3902 10.8811 38.8523C11.2309 39.3054 11.6338 39.8902 11.6435 40.3939C11.679 42.2844 11.5683 44.1476 11.4435 45.878C11.3661 46.9494 11.2422 48.0378 11.1222 49.0906C11.0488 49.7337 10.9755 50.3771 10.9118 51.0223C10.7698 52.4546 11.2605 53.1711 12.6055 53.4955C13.4034 53.6929 14.222 53.7952 15.0441 53.8006H15.1197C17.8436 53.7776 20.6107 53.7155 23.2885 53.6553L25.0747 53.6156C26.8085 53.5778 27.5071 52.9494 27.6525 51.2969C27.907 48.4022 28.0291 46.1796 28.0479 44.0899L28.0505 43.8664C28.0655 42.6266 28.0823 41.2281 26.9968 40.0324L29.0166 37.4975C30.5564 35.5642 32.0921 33.6371 33.6239 31.7157ZM25.1065 39.6796L22.082 39.452C22.0778 39.4276 22.0771 39.4028 22.0798 39.3783C22.5255 37.672 22.9758 35.967 23.4305 34.2636C24.4421 30.4531 25.4878 26.5129 26.4374 22.617C27.1702 19.6112 27.1936 16.9476 26.5082 14.4744C26.171 13.2574 25.5306 12.3585 24.6558 11.875C24.2343 11.6551 23.7728 11.5225 23.2986 11.4852C22.8245 11.448 22.3475 11.5067 21.8968 11.658C21.5376 11.7771 21.1915 11.9325 20.8641 12.1217L20.7296 12.1932C20.5179 12.3054 20.3214 12.4347 20.1135 12.5701L19.999 12.6448C19.9419 12.5732 19.886 12.5018 19.8305 12.4309C19.6272 12.1617 19.4102 11.9031 19.1802 11.6561C17.9578 10.3849 16.1989 10.2611 14.8023 11.3488C13.8571 12.1108 13.1407 13.117 12.7316 14.2571C11.2915 17.9351 11.1846 21.7699 12.4138 25.6548C13.0571 27.6879 13.7385 29.7456 14.3985 31.7353C14.6473 32.486 14.8954 33.237 15.143 33.9879C15.6816 35.6731 15.9967 37.4209 16.0803 39.1873H13.7731C13.6446 37.5295 12.5382 36.4054 11.4684 35.3168C11.2699 35.1158 11.0715 34.9138 10.879 34.7083C6.46096 30.0029 4.0365 24.9633 3.46754 19.3017C3.2715 17.352 3.12639 15.276 3.38948 13.3048C3.78642 10.3304 5.49128 7.839 8.60114 5.68778C12.3889 3.06769 16.6012 2.22147 21.1187 3.17261C23.5004 3.67376 25.8144 4.21354 27.9433 5.29859C33.4549 8.10835 35.9753 12.998 35.2313 19.4391C34.7183 23.8805 32.6644 27.7966 28.5712 32.1372C27.4966 33.2776 26.2962 34.6765 25.5425 36.4072C25.1511 37.3061 24.77 38.3667 25.1065 39.6796ZM25.2441 45.1865L25.118 47.1255H13.7134V44.8426L25.2441 45.1865ZM24.8911 49.6049L24.8251 51.0947C21.4131 51.2453 17.4795 51.3726 13.596 51.0776C13.5883 51.0247 13.5804 50.9749 13.574 50.9277C13.546 50.7885 13.5317 50.6471 13.5314 50.5053C13.5466 50.1747 13.5789 49.8426 13.6126 49.4912C13.6205 49.41 13.6284 49.3276 13.6362 49.2444L24.8911 49.6049ZM13.5153 41.1185L13.8406 41.128C17.7647 41.2426 21.4743 41.351 25.2677 41.7444L25.3228 42.6775C21.4374 42.8918 17.5429 42.8825 13.6587 42.6494L13.5153 41.1185ZM16.4516 31.1217C16.3087 30.6698 16.165 30.2178 16.0289 29.7645C15.2879 27.3084 14.5754 24.8988 14.0029 22.4231C13.4708 20.1235 13.7824 17.6898 14.9803 14.7639C15.2448 14.1781 15.6229 13.6502 16.0931 13.2105C16.1802 13.1068 16.2883 13.0224 16.4104 12.9631C16.5324 12.9037 16.6656 12.8707 16.8014 12.866C17.0585 12.8778 17.3251 13.0463 17.5935 13.3663C18.2857 14.1919 18.3006 14.4006 17.7363 15.3952C16.5882 17.4191 16.1206 19.3633 16.3069 21.3387C16.3506 21.9602 16.4963 22.57 16.7383 23.1444C16.8356 23.4338 17.0107 23.691 17.2447 23.8882C17.4786 24.0853 17.7625 24.2148 18.0652 24.2626C18.3679 24.3105 18.678 24.2747 18.9617 24.1593C19.2455 24.0438 19.4919 23.853 19.6743 23.6078C20.0833 23.1326 20.4039 22.5884 20.6211 22.0012C21.4431 19.9188 21.6016 17.635 21.0749 15.4598C20.9089 14.7473 21.415 14.1488 22.4644 13.8175C22.8904 13.683 23.2252 13.6828 23.4587 13.8161C23.5798 13.9004 23.6819 14.0089 23.7584 14.1347C23.8352 14.2605 23.8846 14.4008 23.9035 14.5466C24.1682 15.7067 24.4956 17.1505 24.3305 18.4474C24.0438 20.6901 23.5558 22.9506 23.0832 25.1365C22.995 25.5477 22.907 25.9586 22.8188 26.3693C22.5356 27.6984 22.2262 29.0463 21.9269 30.3495C21.5253 32.0999 21.1109 33.91 20.7515 35.7016C20.5996 36.5806 20.5149 37.4694 20.4981 38.361C20.4818 38.7186 20.4652 39.0854 20.4405 39.4612L17.7523 39.2966C18.1181 36.3903 17.2718 33.7129 16.4523 31.1217H16.4516ZM18.7299 19.8072L18.8856 18.8535C18.885 19.1776 18.8327 19.4994 18.7306 19.8072H18.7299Z" fill="black"/>
</g>
<defs>
<clipPath id="clip0_26_232">
<rect width="38.8125" height="54" fill="white"/>
</clipPath>
</defs>
</svg>
