<svg width="21" height="20" viewBox="0 0 21 20" fill="none" xmlns="http://www.w3.org/2000/svg">
<g clip-path="url(#clip0_23_54)">
<path d="M0.730996 19.9167C0.30879 19.9122 0.0874776 19.6975 0.0794243 19.3278C0.078191 19.2234 0.0914712 19.1193 0.118898 19.0185C0.42844 17.8512 0.756113 16.6884 1.04771 15.5163C1.17458 14.948 1.45122 14.4236 1.84905 13.9975C2.93403 12.8613 4.00132 11.7081 5.09898 10.5845C7.98649 7.62895 11.0147 4.82151 14.1225 2.09863C14.7973 1.50745 15.4612 0.903077 16.1515 0.330502C16.5623 -0.0101098 16.7197 -0.00232953 17.1345 0.35112C17.7264 0.855487 18.2966 1.38536 18.8706 1.91034C19.1796 2.19287 19.4759 2.4893 19.7801 2.77698C20.1741 3.14947 20.1732 3.54745 19.7977 3.94265C19.2 4.57147 18.6182 5.21487 18.0198 5.84273C17.8044 6.06875 17.5558 6.26273 17.3305 6.47958C13.8047 9.87284 10.2796 13.2667 6.75507 16.6612C6.19551 17.1997 5.63525 17.7379 5.06178 18.2615C4.91314 18.3873 4.74275 18.485 4.55896 18.5497C3.45653 18.9733 2.35124 19.3893 1.24309 19.7978C1.07552 19.8499 0.904374 19.8896 0.730996 19.9167ZM3.79779 16.2718L15.6728 4.87444C15.4132 4.63138 15.1659 4.39977 14.8752 4.12745C10.7966 7.774 7.08624 11.7729 3.23036 15.6611L3.79779 16.2718ZM4.90219 17.4052C8.86608 13.5798 12.8449 9.87101 16.6448 5.99113L16.2974 5.54921C12.1989 9.23581 8.30058 13.0495 4.30621 16.743L4.90219 17.4052ZM2.69398 15.1714C6.48324 11.1851 10.2864 7.32527 14.2755 3.60806L13.8659 3.24467C9.82026 6.85646 5.97746 10.6535 2.29482 14.6306C2.38989 14.7491 2.4565 14.8274 2.51769 14.91C2.57152 14.9821 2.61879 15.0588 2.69434 15.1714H2.69398ZM19.049 3.49006C18.3882 2.64701 16.9707 1.26037 16.5517 1.04089L14.6801 2.66815L17.5164 5.16877C18.0361 4.60004 18.5359 4.05234 19.0494 3.49006H19.049ZM1.74314 15.1428C1.59721 15.8925 1.46536 16.5458 1.34797 17.2017C1.33354 17.3018 1.3579 17.4036 1.41608 17.4863C1.68562 17.8223 1.97169 18.1451 2.26259 18.4851L4.00648 17.8192L1.74314 15.1428Z" fill="black"/>
</g>
<defs>
<clipPath id="clip0_23_54">
<rect width="20.1342" height="20" fill="white"/>
</clipPath>
</defs>
</svg>
