<svg width="37" height="54" viewBox="0 0 37 54" fill="none" xmlns="http://www.w3.org/2000/svg">
<path d="M30.4952 13.0184C31.3186 12.9186 32.1678 12.8788 32.9889 12.84C33.3172 12.8247 33.6456 12.8093 33.974 12.7912C35.3862 12.7087 36.3212 11.9452 36.5388 10.6967C37.1358 7.27408 37.1526 4.48016 36.5928 1.90356C36.3129 0.616731 35.466 -0.0561024 34.2189 0.00366508C32.9828 0.0644084 31.7199 0.101225 30.4984 0.136598C27.3564 0.227835 24.1068 0.321989 20.9716 0.833306C15.3759 1.74568 11.8723 5.27884 11.1043 10.7823C10.913 12.3791 10.8122 13.9854 10.8026 15.5935C10.7867 16.2327 10.7704 16.8938 10.7423 17.5407C10.7213 18.0254 10.7265 18.5182 10.7318 19.0395C10.7338 19.2223 10.7357 19.4103 10.7365 19.6067C10.2198 19.6242 9.72311 19.6406 9.24082 19.6555C8.01595 19.695 6.85915 19.7324 5.71527 19.7872L5.21274 19.8101C4.20418 19.837 3.19782 19.9194 2.19825 20.0566C0.771394 20.2793 0.242041 20.8633 0.173492 22.2879C0.0656667 24.5567 -0.0441308 27.1935 0.0180762 29.8048C0.0710131 32.0247 1.06098 32.9517 3.43508 33.0039C4.41088 33.0249 5.40058 32.9964 6.35759 32.9681C6.96063 32.9502 7.58416 32.9317 8.19599 32.9263C8.56152 32.9268 8.92674 32.9471 9.2901 32.9868C9.38768 32.9954 9.48526 33.0039 9.5782 33.0112C9.6026 33.0734 9.62331 33.1286 9.64283 33.1786C9.68042 33.2564 9.70674 33.3391 9.72091 33.4245C9.74238 38.6118 9.76361 44.1409 9.768 49.6937C9.77019 52.3559 10.4132 53.0421 13.0452 53.1892C15.1966 53.3095 17.3875 53.3266 19.5047 53.3429L20.3149 53.3493C20.3881 53.3493 20.4574 53.3493 20.5266 53.3493C23.616 53.3493 24.2399 52.7191 24.6183 49.4473C24.6915 48.8584 24.7332 48.2661 24.7432 47.6728C24.7732 44.3551 24.7922 40.9835 24.8112 37.7221L24.8171 36.6561C24.8207 35.9962 24.8203 35.3366 24.819 34.6157V33.7514C25.3911 33.7514 25.9361 33.7526 26.462 33.7533C27.755 33.7558 28.9732 33.7575 30.1701 33.7482C31.9111 33.7348 33.1706 32.8883 33.7183 31.3648C34.5385 29.0807 35.3247 26.5776 36.1222 23.713C36.3281 22.9731 36.2473 22.3307 35.8885 21.8543C35.5189 21.3634 34.8946 21.1002 34.0832 21.0936C32.6474 21.0819 31.1859 21.1357 29.7744 21.1877C29.0386 21.2148 28.3026 21.2417 27.5674 21.2609C27.0207 21.2746 26.4637 21.2712 25.9241 21.2673C25.7392 21.2659 25.5543 21.2649 25.3699 21.2643C25.3369 21.1379 25.3064 21.025 25.2782 20.9228C25.2118 20.7034 25.1608 20.4798 25.1254 20.2535C25.0645 19.8593 25.0466 19.4597 25.0725 19.0617C25.4272 15.5761 25.8541 13.5777 30.4952 13.0184ZM31.553 25.1619L30.2547 29.7601L28.8801 29.7828C27.7913 29.8004 26.7262 29.8177 25.6602 29.8387C21.3509 29.9245 20.7828 30.4629 20.592 34.6418C20.4625 37.4748 20.4471 40.358 20.432 43.1461C20.4259 44.3207 20.4195 45.4956 20.4051 46.6694C20.3971 47.3359 20.399 48.0024 20.4012 48.6993C20.4012 48.9635 20.403 49.2319 20.4034 49.5063C18.4045 49.8591 16.6008 49.7369 14.695 49.6076C14.4827 49.5934 14.2691 49.5793 14.0544 49.5651C14.0373 49.4585 14.0193 49.3548 14.002 49.2529C13.9416 48.9474 13.9027 48.6384 13.8854 48.3276C13.8289 46.3709 13.7765 44.4139 13.728 42.4569C13.6446 39.2124 13.5585 35.8581 13.4443 32.5592C13.3487 29.7804 12.6978 29.2022 9.77312 29.2825C8.40481 29.3217 7.05065 29.3979 5.6172 29.4776C5.05734 29.5093 4.48894 29.5413 3.9081 29.5718V23.7807C4.04178 23.7627 4.17473 23.7434 4.30671 23.7244C4.72979 23.6551 5.15624 23.6083 5.58427 23.5845C6.33002 23.5567 7.09041 23.5443 7.82567 23.5326C8.89905 23.515 10.0068 23.497 11.0975 23.4309C13.8446 23.2645 14.3664 22.7214 14.3791 20.0136C14.3833 19.2212 14.3779 18.428 14.3728 17.6361C14.3647 16.3634 14.3564 15.0475 14.3871 13.756C14.4249 12.9293 14.5139 12.1057 14.6536 11.29L14.7238 10.8156C15.241 7.26464 17.4538 5.0769 21.4895 4.12721L21.759 4.0623C22.2151 3.93237 22.6843 3.85396 23.1578 3.82859C25.5094 3.80664 27.8279 3.80983 30.283 3.81227C31.0558 3.81325 31.8367 3.81386 32.6252 3.81417C33.0711 5.58207 32.8308 7.40928 32.5137 8.99226C32.1907 9.04983 31.8675 9.10667 31.5435 9.16295C30.725 9.30542 29.8785 9.45284 29.0479 9.62214C24.4897 10.5491 22.4165 12.8225 21.8915 17.4651C21.8632 17.7183 21.8332 17.9718 21.8037 18.2255C21.66 19.4518 21.511 20.7201 21.4866 21.976C21.4441 24.1586 22.1996 24.9638 24.3731 25.0536C25.6058 25.1046 26.8577 25.0814 28.0682 25.0592C28.7376 25.0468 29.4297 25.0348 30.1096 25.0348C30.4557 25.0417 30.8014 25.0687 31.1444 25.1158C31.273 25.13 31.4079 25.1456 31.5533 25.1612L31.553 25.1619Z" fill="black"/>
</svg>
