<svg width="20" height="20" viewBox="0 0 20 20" fill="none" xmlns="http://www.w3.org/2000/svg">
<path d="M18.6918 6.45333C18.3834 6.10216 18.0561 5.76883 17.7112 5.45495C17.5932 5.34335 17.4752 5.2319 17.3589 5.11898C17.0385 4.80787 16.7168 4.49805 16.3938 4.18952C15.8812 3.69783 15.3512 3.18946 14.8381 2.68115C14.1849 2.0344 13.3053 1.20362 12.2882 0.513904C11.597 0.0447682 10.8704 -0.0695448 10.1288 0.172348C9.76227 0.291772 9.37711 0.427487 9.05195 0.652673C8.09324 1.31646 7.27235 1.92418 6.54235 2.51035C5.65412 3.22368 4.76065 3.96098 3.8967 4.67398C3.21122 5.23966 2.50226 5.82467 1.80057 6.39414C1.08283 6.97644 0.637587 7.62289 0.439683 8.37028C0.292806 8.90262 0.20906 9.45102 0.190246 10.0038C0.177746 10.5695 0.193473 11.1444 0.208715 11.7002C0.221457 12.1686 0.234763 12.6529 0.230973 13.1284C0.230005 13.2565 0.229496 13.3847 0.229442 13.5133C0.22791 14.2184 0.226377 14.9476 0.0990382 15.6359C-0.142897 16.9423 0.349036 18.0304 1.56041 18.8704C2.44275 19.4819 3.47347 19.6058 4.47017 19.7255C5.85856 19.8886 7.25519 19.9679 8.65276 19.9628C9.37356 19.9628 10.125 19.9446 10.9171 19.9085L12.2881 19.8544C13.4413 19.8089 14.6652 19.7607 15.8886 19.7117C16.6413 19.6887 17.3868 19.5549 18.102 19.3144C18.7972 19.0762 19.3036 18.6198 19.5653 17.9946C19.8199 17.3874 19.951 16.862 19.9661 16.3883C20.0394 13.9366 19.9573 11.4826 19.7202 9.04172C19.6224 8.01578 19.2763 7.1451 18.6918 6.45333ZM7.27549 18.2358C7.29218 18.0547 7.30775 17.8835 7.3121 17.7127C7.33071 16.94 7.34793 16.1672 7.3638 15.3941C7.3795 14.6616 7.39579 13.929 7.41267 13.1966C7.42436 12.7048 7.44186 12.3292 7.4696 11.9785C7.51162 11.4448 7.69331 11.2295 8.18945 11.1241C8.73582 10.9983 9.29147 10.9187 9.85074 10.8862C10.2981 10.8698 10.7567 10.8891 11.1999 10.9083C11.4736 10.92 11.7563 10.9323 12.0353 10.9358C12.2875 10.9391 12.4121 11.051 12.4516 11.3112C12.4839 11.5238 12.5226 11.7392 12.5599 11.9475C12.66 12.435 12.7239 12.9295 12.7509 13.4269C12.7832 14.5704 12.777 15.6946 12.7704 16.8848C12.7679 17.3402 12.7662 17.8 12.7652 18.2641C10.9282 18.3992 9.12502 18.45 7.25896 18.4215C7.26428 18.3575 7.27001 18.2962 7.27549 18.2358ZM14.1693 13.6113C14.1016 12.7874 13.9215 11.9621 13.7472 11.164L13.6921 10.9109C13.5326 10.1752 13.0514 9.7376 12.3006 9.64542C10.4765 9.42147 9.08542 9.45851 7.78985 9.766C6.66606 10.0327 6.07743 10.7198 5.99049 11.8664C5.93694 12.5727 5.94315 13.2939 5.9492 13.9913C5.95089 14.1851 5.95251 14.3788 5.95299 14.5722C5.95477 15.3021 5.96356 16.0439 5.97202 16.7615C5.97702 17.186 5.9816 17.6106 5.98573 18.0352C5.98638 18.1124 5.97944 18.1923 5.9713 18.2848C5.96912 18.3095 5.96686 18.3357 5.9646 18.3628C5.04364 18.3193 4.26872 18.2512 3.50541 18.0723C3.13799 17.9863 2.71622 17.878 2.36025 17.6807C1.71315 17.322 1.41097 16.8288 1.43638 16.1725C1.45743 15.6299 1.46347 15.0488 1.45485 14.396C1.43872 13.1667 1.41452 11.917 1.39122 10.7087L1.38017 10.1333C1.36662 9.43629 1.50017 8.85398 1.78831 8.3534C1.93622 8.09629 2.09856 7.82961 2.31202 7.64072C3.40259 6.67587 4.39597 5.82378 5.34872 5.03531C6.3838 4.17934 7.59138 3.18705 8.82558 2.2501C9.25969 1.92047 9.753 1.67027 10.3608 1.39586C10.5282 1.31763 10.71 1.27641 10.8942 1.27482C11.1894 1.27482 11.4849 1.38682 11.787 1.61168C12.6366 2.24443 13.3936 3.00671 14.1257 3.74383C14.3201 3.93963 14.5145 4.13554 14.711 4.32937C14.8954 4.51137 15.0795 4.69363 15.2635 4.87613C15.8998 5.50658 16.5577 6.15858 17.2203 6.78336C17.8474 7.35791 18.2447 8.14854 18.3359 9.00361C18.444 9.96814 18.5367 10.839 18.5754 11.7285C18.629 12.9601 18.6579 14.3121 18.6641 15.8618C18.6571 16.29 18.6005 16.7159 18.4955 17.1304C18.4591 17.3244 18.3648 17.5019 18.2254 17.6388C18.0861 17.7757 17.9086 17.8651 17.7174 17.8948C17.6027 17.9174 17.4881 17.9421 17.3735 17.9668C17.0755 18.0379 16.7733 18.0895 16.4689 18.1214C15.9632 18.1625 15.4577 18.179 14.9224 18.1969C14.7181 18.2037 14.5103 18.2105 14.2978 18.2188C14.2936 18.1083 14.2893 18.0011 14.2851 17.8967C14.2744 17.6267 14.264 17.3717 14.2586 17.1182C14.2505 16.7533 14.2482 16.3816 14.2459 16.022C14.2403 15.2306 14.2352 14.4124 14.1693 13.6113Z" fill="black"/>
</svg>
