<svg width="20" height="20" viewBox="0 0 20 20" fill="none" xmlns="http://www.w3.org/2000/svg">
<path d="M6.80118 3.58099C6.99674 3.08374 7.15834 2.63574 7.34705 2.19947C7.83914 1.0617 9.19464 -0.0904896 10.8041 0.0572436C11.5863 0.128888 12.2056 0.518587 12.7566 1.03645C13.3125 1.55885 13.633 2.22701 13.8759 2.93723C13.9164 3.05581 13.9537 3.17554 14.0046 3.33216C14.1497 3.34105 14.2991 3.35234 14.449 3.35785C15.1621 3.38398 15.8752 3.40612 16.5881 3.4358C16.7 3.43924 16.8105 3.46141 16.9149 3.50134C17.1905 3.61236 17.3044 3.83973 17.177 4.10924C17.0816 4.31205 17.068 4.5438 17.1392 4.75633C17.8753 7.46308 18.2688 10.2374 18.7649 12.9918C19.0005 14.3001 19.2893 15.5987 19.5351 16.9055C19.6537 17.5371 19.739 18.1758 19.817 18.814C19.8835 19.3584 19.6144 19.7024 19.0642 19.7808C18.718 19.8306 18.3688 19.8563 18.019 19.8576C13.3079 19.8657 8.59673 19.8711 3.88562 19.8736C3.04571 19.8752 2.20606 19.9263 1.36615 19.9312C1.10025 19.9301 0.835963 19.8898 0.5818 19.8117C0.125978 19.6745 -0.0652189 19.3456 0.0224256 18.8722C0.193092 17.9501 0.381708 17.0314 0.55833 16.1104C0.974684 13.939 1.37237 11.7636 1.80971 9.59649C2.04766 8.41724 2.35237 7.25139 2.62491 6.07903C2.74855 5.54703 2.86349 5.01298 2.98865 4.48133C3.13576 3.85653 3.24536 3.78801 3.8698 3.76045C4.45585 3.73485 5.03975 3.66267 5.62544 3.62409C6.01468 3.59813 6.40554 3.59467 6.80118 3.58099ZM18.4662 18.487C18.3207 17.8678 18.1856 17.3403 18.0737 16.808C17.7828 15.424 17.4682 14.0441 17.2253 12.6517C16.8239 10.3495 16.4732 8.0392 16.0964 5.73307C16.0342 5.3496 15.948 4.96995 15.8624 4.53555C15.3024 4.59288 14.7738 4.44035 14.1991 4.5C14.224 4.71333 14.2378 4.87833 14.2634 5.04171C14.3197 5.46194 14.2386 5.88911 14.0322 6.25946C13.986 6.36388 13.9061 6.44976 13.8052 6.50325C13.7044 6.55675 13.5884 6.57474 13.4762 6.55438C13.3634 6.54097 13.258 6.4911 13.1762 6.41232C13.0943 6.33354 13.0404 6.23017 13.0228 6.11796C13.0073 6.04979 12.9972 5.98019 12.9881 5.91076C12.9263 5.44294 12.8655 4.97492 12.8024 4.49314H7.76883C7.72234 4.88825 7.67994 5.25919 7.6346 5.62977C7.60794 5.85101 7.58944 6.07424 7.54313 6.29184C7.529 6.38374 7.48353 6.46791 7.41442 6.53012C7.34531 6.59233 7.25681 6.62874 7.16393 6.63315C6.93237 6.64907 6.79948 6.4993 6.73806 6.29743C6.67779 6.11172 6.63836 5.91987 6.62046 5.72543C6.60091 5.44641 6.62002 5.16481 6.61335 4.88454C6.6036 4.77232 6.58686 4.66078 6.56323 4.55065C5.73283 4.55171 4.93655 4.49628 4.09868 4.66962C3.173 9.33871 2.24624 14.0133 1.30882 18.7421C1.44544 18.7421 1.59406 18.748 1.74215 18.741C2.83291 18.69 3.92305 18.6223 5.01425 18.5872C6.35869 18.5439 7.70385 18.5093 9.04895 18.5023C12.0082 18.4869 14.9675 18.4912 17.9268 18.4874C18.0916 18.4868 18.2564 18.487 18.4662 18.487ZM12.6362 3.40676C12.5258 2.73619 12.1833 2.12572 11.6683 1.68228C11.102 1.22006 10.48 1.1401 9.81491 1.3865C8.84606 1.7457 8.36855 2.51538 8.10135 3.49244L12.6362 3.40676Z" fill="black"/>
</svg>
