<svg width="53" height="53" viewBox="0 0 53 53" fill="none" xmlns="http://www.w3.org/2000/svg">
<path d="M36.5069 33.3332C38.2735 35.4264 39.1982 37.7137 39.16 40.3447C39.1074 43.9699 37.2452 46.6987 34.6285 48.9392C31.5791 51.5499 27.8938 52.6513 23.9498 52.9607C23.086 53.0101 22.2202 53.0129 21.3561 52.9693C20.9828 52.9619 20.613 52.8961 20.2601 52.7742C18.8459 52.2619 18.6309 51.2141 19.7525 50.2288C20.8535 49.2617 22.0416 48.3901 23.1022 47.3826C23.9149 46.6045 24.6509 45.75 25.3001 44.8311C25.9874 43.8637 26.0479 42.7476 25.6219 41.4615C24.9427 41.7776 24.2921 42.0296 23.6942 42.3721C22.4406 43.0904 21.7334 43.0606 20.6579 42.1165C19.6129 41.1989 18.586 40.2609 17.5464 39.3372C17.3917 39.2165 17.2301 39.105 17.0623 39.0032C16.4317 39.5862 15.8455 40.1674 15.2171 40.6988C14.3843 41.4028 13.5584 41.4213 13.018 40.7979C12.5116 40.2144 12.5949 39.4431 13.3267 38.6932C13.846 38.1605 14.4394 37.6997 14.8779 37.3136C13.6988 35.8743 12.5104 34.6943 11.656 33.31C10.6576 31.691 11.8915 30.2479 12.6626 28.6639C11.1907 28.5716 9.98016 28.8412 9.00719 29.5874C8.07866 30.3403 7.2413 31.1991 6.51213 32.1464C5.80583 33.018 5.25647 34.0163 4.62943 34.9529C4.03829 35.836 3.4327 36.764 2.1881 36.6357C1.32645 36.547 0.124983 34.9949 0.0452767 33.8282C-0.135362 31.1685 0.203336 28.5802 1.44522 26.1759C3.72036 21.7728 7.30445 18.9097 11.9735 17.3779C13.9298 16.7362 15.9006 16.9405 17.896 17.5483C18.0066 17.421 18.1364 17.2941 18.2403 17.1489C23.6287 9.61834 30.9719 4.8382 39.6685 1.99947C42.6303 1.03283 45.6266 0.152886 48.7837 0.0722765C49.5725 0.0521805 50.3614 -0.00811655 51.1497 0.000915364C52.1777 0.0124311 52.6903 0.377103 52.6487 1.38123C52.5954 3.32441 52.4134 5.26194 52.1041 7.18108C50.8351 14.3983 47.3644 20.588 42.8563 26.2334C41.1017 28.4309 39.1259 30.4525 37.2486 32.5522C37.0267 32.7996 36.7907 33.035 36.5069 33.3332ZM18.9647 36.6829C20.1388 37.6159 20.9939 38.348 21.9131 38.9861C22.0693 39.0597 22.24 39.0974 22.4127 39.0966C22.5854 39.0957 22.7557 39.0562 22.9111 38.9811C24.3682 38.2086 25.8583 37.4698 27.2146 36.5409C32.0456 33.2325 36.4161 29.3887 40.0898 24.8159C42.0832 22.335 43.907 19.7185 45.8448 17.1128L34.6156 6.685C34.245 6.85835 33.8839 7.05139 33.5338 7.26327C31.3436 8.71673 29.1107 10.1131 26.9956 11.6693C24.6247 13.4133 22.6185 15.5446 20.8275 17.8938C17.8571 21.7895 16.1083 26.3387 13.9104 30.6469C13.6918 31.0759 13.8144 31.94 14.1242 32.3237C14.9305 33.3224 15.929 34.1662 17.0124 35.2304C18.7059 33.475 20.1962 31.8346 21.7957 30.3066C22.7172 29.4793 23.7053 28.7292 24.7498 28.064C25.299 27.691 26.0001 27.5639 26.5025 28.1367C27.0116 28.7175 26.5731 29.2862 26.2152 29.753C25.7922 30.2802 25.3338 30.7781 24.8433 31.2432C23.8272 32.2476 22.8089 33.249 21.7621 34.2204C20.8839 35.0366 19.964 35.8068 18.9647 36.6829ZM50.5204 2.19795C45.7156 2.20766 41.4749 3.99394 37.1513 5.44763L37.0741 5.7468L47.0185 14.1302C48.7226 11.4297 50.0292 6.97742 50.5204 2.19795ZM26.724 48.7279C30.7698 47.9658 33.9043 45.9138 35.6656 42.1529C36.8397 39.6429 36.0196 37.3003 34.6357 35.0732C32.3061 36.8516 30.078 38.553 27.8503 40.2539C29.6049 43.3505 28.7063 46.0777 26.724 48.7279ZM16.6534 19.4356C10.8689 18.4872 2.87272 26.3089 3.39138 31.6786C5.75345 27.9484 8.78456 25.701 13.3459 26.5096L16.6534 19.4356Z" fill="black"/>
<path d="M4.92452 48.3632C5.0959 48.0529 5.27992 47.4889 5.64707 47.0967C7.03166 45.6184 8.46706 44.187 9.90336 42.7584C10.3252 42.3389 10.8587 42.0742 11.4076 42.522C11.9866 42.9944 11.7332 43.5589 11.3911 44.0263C10.217 45.6294 9.04013 47.2326 7.79937 48.7836C7.43032 49.2075 6.96121 49.5326 6.43465 49.7292C5.65294 50.0372 4.8972 49.4174 4.92452 48.3632Z" fill="black"/>
<path d="M17.7851 42.6147C18.6176 42.6373 19.2228 43.3881 18.8524 43.9695C17.9093 45.433 16.8733 46.8345 15.7507 48.1653C15.3485 48.6469 14.6264 48.5787 14.1157 48.1179C13.8821 47.9202 13.7293 47.6436 13.6863 47.3407C13.6433 47.0378 13.7131 46.7296 13.8824 46.4748C14.1888 45.9645 14.5532 45.4913 14.9683 45.0646C15.5831 44.4098 16.2327 43.7853 16.9006 43.1853C17.177 42.9679 17.4731 42.7769 17.7851 42.6147Z" fill="black"/>
<path d="M10.3475 36.2634C10.1885 36.6147 10.0008 36.9521 9.78613 37.2723C8.73767 38.5809 7.67311 39.8764 6.59244 41.1588C6.38939 41.3774 6.15317 41.5627 5.89247 41.7079C5.35281 42.0396 4.80413 42.0391 4.36901 41.5478C3.91945 41.0402 4.01925 40.4768 4.46994 40.0402C5.94531 38.61 7.43761 37.1967 8.95948 35.8164C9.15841 35.6357 9.58201 35.6064 9.87306 35.6601C10.0478 35.6924 10.168 36.0214 10.3475 36.2634Z" fill="black"/>
<path d="M34.1193 12.2932C35.5856 12.2731 36.716 12.8728 37.8506 13.8178C39.0268 14.7973 39.9054 15.8421 40.3396 17.3023C41.3417 20.6798 39.3589 23.1661 36.1433 23.6208C33.5372 23.9893 31.3266 22.9161 29.7187 20.876C28.3414 19.1279 28.3041 17.0937 29.2594 15.139C30.2227 13.1666 31.958 12.3142 34.1193 12.2932ZM31.0243 17.7045C31.4009 18.3543 31.6712 19.1828 32.2323 19.6892C32.8135 20.2138 33.6587 20.4736 34.421 20.7636C35.4226 21.1447 36.2894 20.741 36.97 20.0324C37.6286 19.3471 37.653 18.4864 37.3313 17.6096C36.8241 16.2273 35.6412 15.5336 34.4533 14.9079C33.3866 14.3462 32.3743 14.6822 31.7663 15.7342C31.4562 16.2695 31.3176 16.904 31.0243 17.7045Z" fill="black"/>
</svg>
